<?xml version="1.0" encoding="UTF-8"?>
<svg version="1.1" viewBox="0 0 3375 1587.4" xmlns="http://www.w3.org/2000/svg" xmlns:xlink="http://www.w3.org/1999/xlink">
<defs>
<clipPath id="k">
<path transform="translate(-593.34 -584)" d="m0 1190.6h2531.2v-1190.6h-2531.2z"/>
</clipPath>
<clipPath id="c">
<path transform="translate(-804.28 -928.39)" d="m0 1190.6h2531.2v-1190.6h-2531.2z"/>
</clipPath>
<clipPath id="b">
<path transform="translate(-1792.1 -773.61)" d="m0 1190.6h2531.2v-1190.6h-2531.2z"/>
</clipPath>
<clipPath id="a">
<path transform="translate(-2090.9 -892.28)" d="m0 1190.6h2531.2v-1190.6h-2531.2z"/>
</clipPath>
<clipPath id="p">
<path transform="translate(-1418.6 -900.55)" d="m0 1190.6h2531.2v-1190.6h-2531.2z"/>
</clipPath>
<clipPath id="o">
<path transform="translate(-1072 -704.51)" d="m0 1190.6h2531.2v-1190.6h-2531.2z"/>
</clipPath>
<clipPath id="n">
<path transform="translate(-1531.1 -379.18)" d="m0 1190.6h2531.2v-1190.6h-2531.2z"/>
</clipPath>
<clipPath id="m">
<path transform="translate(-947.3 -846.01)" d="m0 1190.6h2531.2v-1190.6h-2531.2z"/>
</clipPath>
<clipPath id="l">
<path transform="translate(-1645 -379.22)" d="m0 1190.6h2531.2v-1190.6h-2531.2z"/>
</clipPath>
<clipPath id="j">
<path transform="translate(-1876.3 -379.14)" d="m0 1190.6h2531.2v-1190.6h-2531.2z"/>
</clipPath>
<clipPath id="i">
<path transform="translate(-1549.3 -966.99)" d="m0 1190.6h2531.2v-1190.6h-2531.2z"/>
</clipPath>
<clipPath id="h">
<path transform="translate(-1758.3 -379.26)" d="m0 1190.6h2531.2v-1190.6h-2531.2z"/>
</clipPath>
<clipPath id="g">
<path transform="translate(-1908.5 -373.81)" d="m0 1190.6h2531.2v-1190.6h-2531.2z"/>
</clipPath>
<clipPath id="f">
<path transform="translate(-1981.5 -291.7)" d="m0 1190.6h2531.2v-1190.6h-2531.2z"/>
</clipPath>
<clipPath id="e">
<path d="m0 1190.6h2531.2v-1190.6h-2531.2z"/>
</clipPath>
<clipPath id="d">
<path d="m0 1190.6h2531.2v-1190.6h-2531.2z"/>
</clipPath>
</defs>
<g fill="#231916">
<path transform="matrix(1.3333 0 0 -1.3333 791.12 808.73)" d="m0 0c0.056-10.96 0.112-22.283 0-37.621v-1.283l-0.558-1.144c-4.629-9.426-8.812-17.792-12.773-25.768-7.167-14.363-13.637-27.247-20.999-43.088-34.052-25.936-65.51-53.992-93.956-83.999l-7.864-8.283-51.092 44.286-1.339 1.562v492.68l0.614 1.199c15.422 30.287 23.091 44.566 39.016 72.788l1.589 2.817h106.34l1.646-2.594c15.227-24.039 22.757-35.362 38.374-57.756l1.004-1.45v-1.785c-0.111-15.255-0.056-26.801 0-37.984 0.056-11.211 0.112-22.785 0-38.067l-0.028-4.686-4.629-0.781c-13.024-2.175-22.367-3.932-33.187-5.94-5.801-1.087-11.909-2.231-19.048-3.514l-6.61-1.199 0.028 6.721c0.084 12.522 0.056 21.976 0 31.43 0 7.865-0.028 15.729 0 25.323-24.932-2.538-38.43-4.016-63.278-6.805-0.14-68.02-0.084-136.9 0-203.61 0.056-64.841 0.139-131.8 0.028-197.98 22.868 14.864 37.454 23.983 63.278 39.182 0.056 10.933 0.028 19.439-0.028 27.945-0.028 9.314-0.055 18.657 0 31.207l0.028 3.402 8.478 4.295c16.677 8.45 28.753 14.558 47.02 23.119l8.004 3.765-0.056-8.84c-0.111-15.283-0.056-26.606 0-37.538" clip-path="url(#k)"/>
<path transform="matrix(1.3333 0 0 -1.3333 1072.4 349.54)" d="m0 0v-262.6c1.562 0.557 3.012 1.059 5.02 1.757l11.378 3.988 0.056-7.809c0.112-14.837 0.084-24.765 0.028-36.087 0-3.71 0-7.558-0.028-11.769-35.223-12.857-69.33-27.275-102.13-43.227 0.056 9.175 0 16.761-0.056 24.151-0.055 9.315-0.111 18.936 0 31.681l0.056 3.654 3.347 1.422c3.346 1.422 6.665 2.9 9.956 4.378 3.346 1.478 6.749 3.012 10.207 4.463 0.195 21.306 0.056 37.788-0.056 53.74-0.111 15.06-0.223 30.594-0.055 50.199-15.841-4.462-26.913-7.892-41.498-12.438l-8.395-2.622c-0.279-29.812-0.195-50.254-0.083-73.792 0.055-11.239 0.083-23.092 0.111-36.98 1.562 0.725 3.124 1.395 5.494 2.454l10.514 4.658v-60.1c-35.307-17.653-69.023-37.063-100.87-58.119 0.056 11.714 0.028 21.139-0.028 30.287-0.056 10.653-0.111 21.669 0 36.227l0.028 3.318 9.092 4.797c4.406 2.315 8.561 4.518 12.884 6.722 0.446 54.772 0.195 110.02-0.028 163.48-0.223 52.57-0.446 106.9-0.028 160.83-3.848-0.334-6.972-0.613-12.075-1.059l-6.08-0.558v84.167l100.82 0.055v-75.744l-5.131-0.419c-5.996-0.446-9.705-0.752-14.614-1.143-0.195-22.31-0.083-39.796 0.028-56.725 0.112-16.51 0.223-33.493 0.056-54.968l2.259 0.53c17.235 3.961 29.032 6.694 47.661 10.514 0.195 20.861 0.056 37.12-0.056 52.904-0.111 15.422-0.223 31.319-0.055 51.538-4.184-0.279-7.475-0.53-13.024-0.948l-5.996-0.446v74.907l101.48 0.056v-68.075l-5.94-0.363c-5.522-0.334-9.454-0.585-14.251-0.892" clip-path="url(#c)"/>
<path transform="matrix(1.3333 0 0 -1.3333 2389.4 555.92)" d="m0 0c-0.223-47.41-0.474-96.354-0.084-144.99-22.366 9.872-34.051 14.585-58.119 23.872-0.474 46.016-0.223 92.701 0.028 137.91 0.251 44.482 0.502 90.442 0.056 135.84 23.733-1.618 35.418-2.483 58.175-4.267 0.446-49.697 0.195-99.84-0.056-148.37m61.633-14.836c0.279 59.123 0.53 120.28 0 180.41v1.729l-1.004 1.422c-15.589 22.172-23.342 32.685-39.518 53.657l-1.673 2.148h-101.54l-1.673-1.981c-15.06-17.876-22.562-26.438-38.263-43.589l-1.478-1.617 0.028-2.204c0.557-49.111 0.279-98.306 0-145.88-0.279-47.661-0.558-96.94 0-146.19v-1.673l31.513-46.267c43.897-16.9 85.952-36.282 125.75-58.007 6.414 5.717 13.832 12.577 19.438 17.709 3.123 2.9 5.55 5.103 6.554 5.996l1.896 1.701-0.028 2.538c-0.502 59.987-0.251 121.04 0 180.1" clip-path="url(#b)"/>
<path transform="matrix(1.3333 0 0 -1.3333 2787.8 397.7)" d="m0 0c-5.494 0.669-9.064 1.088-13.414 1.59l0.362-425.04c6.219-4.24 10.04-6.889 16.901-11.714l2.398-1.645v-108.79l-9.147 7.501c-25.379 20.945-37.845 30.789-63.474 50.171l-1.646 1.227-0.446 2.009c-22.617 102.99-45.151 198.98-68.549 291.99 0.028-20.052-0.056-37.9-0.112-55.414-0.111-28.725-0.223-58.398-0.028-97.135 3.626-2.092 6.721-3.96 9.984-5.912 2.455-1.478 4.992-2.984 7.921-4.713l2.761-1.646v-84.892c-32.072 27.024-66.793 52.04-103.83 74.908v67.239l8.144-4.155c4.518-2.315 7.948-4.212 11.574-6.219 0.167-0.084 0.334-0.168 0.501-0.28-0.334 54.941-0.111 110.3 0.084 163.9 0.195 55.024 0.419 111.89 0.028 168.19-1.422 0.14-2.761 0.251-4.099 0.391-3.459 0.335-6.777 0.669-11.128 1.06l-5.048 0.446-0.056 5.048c-0.111 14.39-0.055 25.322 0 35.892 0.056 10.514 0.14 21.39 0 35.697l-0.027 5.605 5.605 0.028c26.94 0.084 40.41 0.14 67.35 0.251h4.267l1.144-4.099c25.155-90.86 47.382-182 66.485-263.52l-0.501 170.76c-1.339 0.14-2.566 0.307-3.793 0.446-3.207 0.363-6.331 0.725-10.486 1.172l-4.965 0.53v4.992c-0.083 16.788-0.055 29.366 0 41.916 0.028 12.55 0.056 25.099 0 41.86l-0.027 5.605 101.51-0.083v-105.92z" clip-path="url(#a)"/>
<path transform="matrix(1.3333 0 0 -1.3333 1891.5 386.66)" d="m0 0c0.058 12.049 0.115 24.463 0.019 40.033 19.824-0.461 31.854-0.789 51.793-1.424 0.116-16.379 0.02-29.37-0.057-41.977-0.077-12.472-0.135-25.271-0.058-41.323-19.247 1.809-31.392 2.81-51.735 4.234-0.077 15.782-0.02 28.312 0.038 40.457m-82.049 41.554 5.466-0.058c4.523-0.058 7.814-0.135 11.259-0.192 1.059-0.02 2.118-0.02 3.234-0.058l1.001-201.24c-4.543 0.405-8.219 0.713-13.935 1.117l-6.024 0.423 0.019-6.024c0.039-8.892 0.039-15.552 0-22.192-0.019-6.717-0.019-13.453 0-22.422l0.039-4.485c34.547-2.271 68.749-5.889 102.43-10.797v54.738l-4.773 0.693c-3.542 0.539-6.583 1.097-9.566 1.616-2.29 0.424-4.619 0.847-7.14 1.232-0.077 13.646-0.02 24.405 0.038 34.856 0.058 10.163 0.077 20.594 0.019 33.644 26.003-2.426 41.804-4.331 69.885-8.065l2.406-0.308 1.867 1.501c13.338 10.894 20.132 16.707 31.411 26.368l8.16 6.987-0.019 2.599c-0.25 24.27-0.115 42.958 0 61.05 0.135 18.131 0.251 36.877 0 61.205v2.271l-1.616 1.617c-16.245 16.225-24.078 23.789-39.418 38.263l-1.617 1.539h-153.17l-0.019-18.496c0-9.45-0.039-19.67 0.019-31.873z" clip-path="url(#p)"/>
<path transform="matrix(1.3333 0 0 -1.3333 1429.3 648.06)" d="m0 0c-0.038 6.91-0.077 13.839 0 23.096l0.019 4.812 8.373 1.155c4.33 0.577 8.006 1.116 12.221 1.636v205.59c-4.349-0.115-7.852-0.173-13.318-0.308l-5.736-0.135 0.019 5.736c0.097 9.277 0.039 16.206 0 23.154-0.019 6.948-0.038 13.915 0 23.211l0.058 5.524h83.974l1.232-3.907c15.474-49.56 23.904-75.967 37.338-117.81 8.796 24.347 15.475 43.574 22.519 63.668 5.562 16.09 11.51 33.104 19.035 54.334l1.309 3.714h80.971v-55.719l-6.621 0.038c-5.273 0.058-8.892 0.097-13.357 0.116 0.096-39.129 0.039-69.135 0-99.16-0.058-29.986-0.077-59.992-0.019-99.14 4.908-0.173 8.661-0.346 14.685-0.654l5.312-0.27-0.038-14.281c0-9.45-0.019-22.519 0.038-35.376v-5.542c-43.363 2.598-86.052 1.635-94.347 1.558l0.057 55.277 5.485 0.096c2.483 0.02 4.331 0.039 6.217 0.077l0.039 72.137-19.439-64.476-4.023-0.096c-13.049-0.366-19.401-0.616-32.489-1.29l-4.176-0.231-1.367 3.965c-6.582 18.9-10.47 33.412-14.223 47.443-0.905 3.291-1.771 6.582-2.714 9.951 0.039-6.795 0.039-13.281 0.058-19.651 0.058-15.321 0.115-31.103 0.019-51.024 0.173 0.039 0.346 0.039 0.539 0.058l10.047 0.674-0.039-6.005c-0.019-8.892 0-15.59 0-22.25 0.039-6.697 0.058-13.376 0-22.326v-4.619c-32.931-1.963-65.535-5.235-97.696-9.662l0.038 3.907c0.058 9.2 0.019 16.11 0 23" clip-path="url(#o)"/>
<path transform="matrix(1.3333 0 0 -1.3333 2041.5 1081.8)" d="m0 0 9.104-5.368h-578.56l9.104 5.368c82.511 48.632 179.4 74.364 280.18 74.364 100.78 0 197.66-25.732 280.18-74.364" clip-path="url(#n)"/>
<path transform="matrix(1.3333 0 0 -1.3333 1263.1 459.39)" d="m0 0c2.733-16.032 5.177-30.121 8.623-49.868-6.737-1.117-11.779-1.983-18.131-3.099 3.715 20.671 6.352 35.568 9.508 52.967m-109.13-223.98c30.795 10.721 62.417 20.19 94.713 28.428 0.058 8.468 0.019 15.243-0.038 21.826-0.058 7.487-0.097 15.205 0 25.444l0.096 7.275-7.064-1.809c-1.616-0.423-2.964-0.789-4.215-1.097 1.771 10.066 3.041 17.437 4.966 28.389 15.282 3.464 24.52 5.447 39.321 8.372 1.617-9.258 2.772-15.724 4.408-24.963-2.04-0.442-3.965-0.885-6.66-1.501l-4.292-0.982-0.058-4.407c-0.115-10.009-0.057-17.592 0-24.925 0.058-7.256 0.116-14.781 0-24.674v-0.501c31.123 7.218 62.822 13.262 95.022 18.15v1.367c0.077 9.392 0.019 16.417 0 23.442-0.038 7.006-0.096 13.973 0 23.347l0.038 6.582-6.524-1.02c-5.717-0.924-9.316-1.54-13.973-2.329-19.343 88.824-38.013 178.65-55.431 267.01l-0.905 4.523-60.762-0.038-0.885-4.466c-17.9-89.767-36.127-185.5-58.992-310.03-5.292-1.655-8.834-2.791-14.935-4.793l-3.811-1.231-0.038-4.023c-0.154-11.183-0.058-19.593 0-27.773 0.038-7.102 0.096-14.416 0.019-23.597" clip-path="url(#m)"/>
<path transform="matrix(1.3333 0 0 -1.3333 2193.3 1081.8)" d="m0 0 7.814-5.407h-75.755l-0.654 0.413c-104.09 63.142-198.47 93.841-325.46 93.841-126.99 0-221.38-30.699-325.46-93.841l-0.655-0.413h-75.755l7.814 5.407c107.51 74.352 247.46 115.3 394.06 115.3 146.6 0 286.55-40.95 394.06-115.3" clip-path="url(#l)"/>
<path transform="matrix(1.3333 0 0 -1.3333 2501.7 1081.9)" d="m0 0 5.716-5.331h-87.611l-0.789 0.635c-145.22 118.46-324.33 183.73-542.68 183.75-218.35-0.018-397.46-65.284-542.68-183.75l-0.789-0.635h-87.612l5.717 5.331c72.079 66.844 165.91 122.18 271.36 160.02 110.46 39.629 229.56 58.106 354.01 58.106 124.45 0 243.55-18.477 354.01-58.106 105.45-37.839 199.28-93.174 271.36-160.02" clip-path="url(#j)"/>
<path transform="matrix(1.3333 0 0 -1.3333 2065.7 298.07)" d="m0 0c0.058 7.41 0.116 15.09 0 25.156l-0.058 5.62h102.18v-66.594l-5.871 0.346c-5.658 0.308-9.296 0.52-13.819 0.751 0.404-40.669 0.173-81.549-0.038-121.16-0.27-40.207-0.482-81.741-0.058-122.99 2.579-0.866 4.812-1.636 6.986-2.425 2.656-0.943 5.389-1.925 8.931-3.041l3.869-1.251v-55.181c-33.182 11.125-67.287 20.826-102.12 29.102v53.948l6.929-1.713c3.541-0.866 6.409-1.443 9.161-2.001 1.367-0.27 2.772-0.558 4.215-0.886v230.69c-4.985 0.25-9.007 0.404-14.954 0.654l-5.293 0.25-0.058 5.274c-0.116 10.22-0.058 17.937 0 25.444" clip-path="url(#i)"/>
<path transform="matrix(1.3333 0 0 -1.3333 2344.4 1081.7)" d="m0 0 6.659-5.447h-81.856l-0.732 0.52c-124.78 89.555-259.39 136.86-431.42 136.86s-306.64-47.308-431.42-136.86l-0.731-0.52h-81.857l6.66 5.447c128.88 105.05 313.78 165.29 507.34 165.29s378.47-60.242 507.35-165.29" clip-path="url(#h)"/>
<path transform="matrix(1.3333 0 0 -1.3333 2544.6 1089)" d="m0 0v0.77c-164.79 150.2-389.8 236.35-657.53 236.35s-492.74-86.148-657.53-236.35v-0.77h-98.698l4.985 5.197c169.56 175.97 450.39 281.04 751.24 281.04s581.68-105.07 751.24-281.04l4.985-5.197z" clip-path="url(#g)"/>
<path transform="matrix(1.3333 0 0 -1.3333 2642 1198.5)" d="m0 0h-19.418v15.196h-27.782v-91.851h27.782v36.217h-11.201v19.417h30.619v-60.216l-14.909-14.912h-36.873l-14.909 14.912v100.94l14.909 14.982h36.873l14.909-14.982zm-190.93 15.196h-7.564v-91.927h7.564v-19.418h-25.019l-30.474 69.455v-50.037h7.564v-19.418h-34.617v19.418h7.563v91.927h-7.563v19.418l25.82 0.076 29.379-70.326v50.832h-7.27v19.418h34.617zm-222.82 0h-7.563v-91.927h7.563v-19.418h-34.617v19.418h7.564v91.927h-7.564v19.418h34.617zm-183.55-22.472h-19.418v22.472h-26.328v-36.217h30.474l15.272-15.056v-45.16l-14.909-14.912h-35.418l-14.909 14.912v19.778h19.49v-15.196h26.328v36.217h-31.272l-14.546 14.836v45.31l14.909 14.982h35.418l14.909-14.982zm-198.86 0h-19.418v22.472h-26.328v-36.217h30.474l15.272-15.056v-45.16l-14.909-14.912h-35.418l-14.909 14.912v19.778h19.49v-15.196h26.328v36.217h-31.272l-14.546 14.836v45.31l14.909 14.982h35.418l14.909-14.982zm-198.46 7.2h-19.345v15.272h-19.638v-36.217h25.384v-19.417h-25.384v-36.217h19.638v15.196h19.345v-34.69h-66.037v19.418h7.2v91.927h-7.2v19.494h66.037zm-192.82-96.073h-34.62v19.418h7.566v33.819h-24.002v-33.819h7.563v-19.418h-34.617v19.418h7.2v91.927h-7.2v19.639h55.565l14.981-15.202v-45.235l-5.383-5.308 5.383-5.167v-40.654h7.564zm-202.6 68.149-14.909-14.912h-28.656v-33.819h7.563v-19.418h-34.617v19.418h7.564v91.927h-7.564v19.494h55.71l14.909-14.982zm-186.46-87.634h1692.3v169.96h-1692.3z" clip-path="url(#f)"/>
<path transform="matrix(1.3333 0 0 -1.3333 0 1587.4)" d="m742.97 268.2h24.002v38.621h-24.002z" clip-path="url(#e)"/>
<path transform="matrix(1.3333 0 0 -1.3333 0 1587.4)" d="m547.86 268.2h24.075v38.69h-24.075z" clip-path="url(#d)"/>
</g>
</svg>
